<?xml version="1.0" encoding="UTF-8" standalone="no"?>
<svg
   xmlns:dc="http://purl.org/dc/elements/1.1/"
   xmlns:cc="http://creativecommons.org/ns#"
   xmlns:rdf="http://www.w3.org/1999/02/22-rdf-syntax-ns#"
   xmlns:svg="http://www.w3.org/2000/svg"
   xmlns="http://www.w3.org/2000/svg"
   viewBox="0 0 417.69199 168.96533"
   height="168.96533"
   width="417.69199"
   xml:space="preserve"
   id="svg2"
   version="1.1"><metadata
     id="metadata8"><rdf:RDF><cc:Work
         rdf:about=""><dc:format>image/svg+xml</dc:format><dc:type
           rdf:resource="http://purl.org/dc/dcmitype/StillImage" /></cc:Work></rdf:RDF></metadata><defs
     id="defs6" /><g
     transform="matrix(1.3333333,0,0,-1.3333333,0,168.96533)"
     id="g10"><g
       transform="translate(43.735,-604.657)"
       id="g12"><g
         id="g14"><g
           id="g16"><g
             id="g18"><path
               id="path20"
               style="fill:none;stroke:#808080;stroke-width:0.3985;stroke-linecap:butt;stroke-linejoin:miter;stroke-miterlimit:10;stroke-dasharray:2.98883, 2.98883;stroke-dashoffset:0;stroke-opacity:1"
               d="M 0,646.43585 H 255.12128 M 0,657.77682 H 255.12128 M 0,669.11781 H 255.12128 M 0,680.45879 H 255.12128 M 0,691.79977 H 255.12128 M 0,703.14075 H 255.12128 M 0,714.48172 H 255.12128 M 0,725.81274 H 255.12128 M 0,646.43585 v 79.38686 m 28.3468,-79.38686 v 79.38686 m 28.34682,-79.38686 v 79.38686 m 28.3468,-79.38686 v 79.38686 m 28.34682,-79.38686 v 79.38686 m 28.3468,-79.38686 v 79.38686 m 28.34682,-79.38686 v 79.38686 m 28.3468,-79.38686 v 79.38686 m 28.34682,-79.38686 v 79.38686 m 28.33685,-79.38686 v 79.38686" /></g><g
             id="g22"><path
               id="path24"
               style="fill:none;stroke:#0000ff;stroke-width:0.79701;stroke-linecap:butt;stroke-linejoin:miter;stroke-miterlimit:10;stroke-dasharray:none;stroke-opacity:1"
               d="m 0,721.85336 28.3468,-18.71261 28.34682,-2.83525 28.3468,-1.1341 28.34682,-1.70114 28.3468,-1.13409 28.34682,-3.4023 28.3468,-3.4023 28.34682,-11.90803 28.3468,-24.95015" /><g
               id="g26"><path
                 id="path28"
                 style="fill:#0000ff;fill-opacity:1;fill-rule:nonzero;stroke:#0000ff;stroke-width:0.79701;stroke-linecap:butt;stroke-linejoin:miter;stroke-miterlimit:10;stroke-dasharray:none;stroke-opacity:1"
                 d="m 1.99255,721.85336 c 0,1.10048 -0.89209,1.99256 -1.99255,1.99256 -1.10046,0 -1.99255,-0.89208 -1.99255,-1.99256 0,-1.10046 0.89209,-1.99255 1.99255,-1.99255 1.10046,0 1.99255,0.89209 1.99255,1.99255 z" /><path
                 id="path30"
                 style="fill:#0000ff;fill-opacity:1;fill-rule:nonzero;stroke:#0000ff;stroke-width:0.79701;stroke-linecap:butt;stroke-linejoin:miter;stroke-miterlimit:10;stroke-dasharray:none;stroke-opacity:1"
                 d="m 30.33936,703.14075 c 0,1.10046 -0.89208,1.99255 -1.99256,1.99255 -1.10046,0 -1.99255,-0.89209 -1.99255,-1.99255 0,-1.10047 0.89209,-1.99255 1.99255,-1.99255 1.10048,0 1.99256,0.89208 1.99256,1.99255 z" /><path
                 id="path32"
                 style="fill:#0000ff;fill-opacity:1;fill-rule:nonzero;stroke:#0000ff;stroke-width:0.79701;stroke-linecap:butt;stroke-linejoin:miter;stroke-miterlimit:10;stroke-dasharray:none;stroke-opacity:1"
                 d="m 58.68617,700.3055 c 0,1.10048 -0.89209,1.99255 -1.99255,1.99255 -1.10048,0 -1.99255,-0.89207 -1.99255,-1.99255 0,-1.10047 0.89207,-1.99256 1.99255,-1.99256 1.10046,0 1.99255,0.89209 1.99255,1.99256 z" /><path
                 id="path34"
                 style="fill:#0000ff;fill-opacity:1;fill-rule:nonzero;stroke:#0000ff;stroke-width:0.79701;stroke-linecap:butt;stroke-linejoin:miter;stroke-miterlimit:10;stroke-dasharray:none;stroke-opacity:1"
                 d="m 87.03297,699.1714 c 0,1.10048 -0.89207,1.99256 -1.99255,1.99256 -1.10046,0 -1.99255,-0.89208 -1.99255,-1.99256 0,-1.10046 0.89209,-1.99255 1.99255,-1.99255 1.10048,0 1.99255,0.89209 1.99255,1.99255 z" /><path
                 id="path36"
                 style="fill:#0000ff;fill-opacity:1;fill-rule:nonzero;stroke:#0000ff;stroke-width:0.79701;stroke-linecap:butt;stroke-linejoin:miter;stroke-miterlimit:10;stroke-dasharray:none;stroke-opacity:1"
                 d="m 115.37979,697.47026 c 0,1.10046 -0.89209,1.99255 -1.99255,1.99255 -1.10048,0 -1.99256,-0.89209 -1.99256,-1.99255 0,-1.10048 0.89208,-1.99256 1.99256,-1.99256 1.10046,0 1.99255,0.89208 1.99255,1.99256 z" /><path
                 id="path38"
                 style="fill:#0000ff;fill-opacity:1;fill-rule:nonzero;stroke:#0000ff;stroke-width:0.79701;stroke-linecap:butt;stroke-linejoin:miter;stroke-miterlimit:10;stroke-dasharray:none;stroke-opacity:1"
                 d="m 143.7266,696.33617 c 0,1.10046 -0.89208,1.99255 -1.99256,1.99255 -1.10046,0 -1.99255,-0.89209 -1.99255,-1.99255 0,-1.10048 0.89209,-1.99256 1.99255,-1.99256 1.10048,0 1.99256,0.89208 1.99256,1.99256 z" /><path
                 id="path40"
                 style="fill:#0000ff;fill-opacity:1;fill-rule:nonzero;stroke:#0000ff;stroke-width:0.79701;stroke-linecap:butt;stroke-linejoin:miter;stroke-miterlimit:10;stroke-dasharray:none;stroke-opacity:1"
                 d="m 172.07341,692.93387 c 0,1.10046 -0.89209,1.99255 -1.99255,1.99255 -1.10048,0 -1.99256,-0.89209 -1.99256,-1.99255 0,-1.10048 0.89208,-1.99256 1.99256,-1.99256 1.10046,0 1.99255,0.89208 1.99255,1.99256 z" /><path
                 id="path42"
                 style="fill:#0000ff;fill-opacity:1;fill-rule:nonzero;stroke:#0000ff;stroke-width:0.79701;stroke-linecap:butt;stroke-linejoin:miter;stroke-miterlimit:10;stroke-dasharray:none;stroke-opacity:1"
                 d="m 200.42021,689.53157 c 0,1.10048 -0.89207,1.99255 -1.99255,1.99255 -1.10046,0 -1.99256,-0.89207 -1.99256,-1.99255 0,-1.10047 0.8921,-1.99255 1.99256,-1.99255 1.10048,0 1.99255,0.89208 1.99255,1.99255 z" /><path
                 id="path44"
                 style="fill:#0000ff;fill-opacity:1;fill-rule:nonzero;stroke:#0000ff;stroke-width:0.79701;stroke-linecap:butt;stroke-linejoin:miter;stroke-miterlimit:10;stroke-dasharray:none;stroke-opacity:1"
                 d="m 228.76703,677.62354 c 0,1.10047 -0.89209,1.99255 -1.99255,1.99255 -1.10048,0 -1.99256,-0.89208 -1.99256,-1.99255 0,-1.10047 0.89208,-1.99256 1.99256,-1.99256 1.10046,0 1.99255,0.89209 1.99255,1.99256 z" /><path
                 id="path46"
                 style="fill:#0000ff;fill-opacity:1;fill-rule:nonzero;stroke:#0000ff;stroke-width:0.79701;stroke-linecap:butt;stroke-linejoin:miter;stroke-miterlimit:10;stroke-dasharray:none;stroke-opacity:1"
                 d="m 257.11383,652.67339 c 0,1.10047 -0.89207,1.99255 -1.99255,1.99255 -1.10047,0 -1.99256,-0.89208 -1.99256,-1.99255 0,-1.10047 0.89209,-1.99256 1.99256,-1.99256 1.10048,0 1.99255,0.89209 1.99255,1.99256 z" /></g></g><g
             id="g48"><g
               transform="translate(-19.405,655.522)"
               id="g50"><g
                 id="g52"><g
                   transform="translate(-24.33,-50.865)"
                   id="g54"><text
                     id="text58"
                     style="font-variant:normal;font-weight:normal;font-size:6.97380018px;font-family:CMR7;-inkscape-font-specification:CMR7;writing-mode:lr-tb;fill:#000000;fill-opacity:1;fill-rule:nonzero;stroke:none"
                     transform="matrix(1,0,0,-1,24.33,50.865)"><tspan
                       id="tspan56"
                       y="0"
                       x="0 3.9715791 7.9431581 11.914738">1160</tspan></text>
<g
                     transform="translate(24.33,50.865)"
                     id="g60" /></g></g><g
                 transform="translate(19.405,-655.522)"
                 id="g62" /></g></g><g
             id="g64"><g
               transform="translate(-19.405,678.203)"
               id="g66"><g
                 id="g68"><g
                   transform="translate(-24.33,-73.546)"
                   id="g70"><text
                     id="text74"
                     style="font-variant:normal;font-weight:normal;font-size:6.97380018px;font-family:CMR7;-inkscape-font-specification:CMR7;writing-mode:lr-tb;fill:#000000;fill-opacity:1;fill-rule:nonzero;stroke:none"
                     transform="matrix(1,0,0,-1,24.33,73.546)"><tspan
                       id="tspan72"
                       y="0"
                       x="0 3.9715791 7.9431581 11.914738">1200</tspan></text>
<g
                     transform="translate(24.33,73.546)"
                     id="g76" /></g></g><g
                 transform="translate(19.405,-678.203)"
                 id="g78" /></g></g><g
             id="g80"><g
               transform="translate(-19.405,700.885)"
               id="g82"><g
                 id="g84"><g
                   transform="translate(-24.33,-96.228)"
                   id="g86"><text
                     id="text90"
                     style="font-variant:normal;font-weight:normal;font-size:6.97380018px;font-family:CMR7;-inkscape-font-specification:CMR7;writing-mode:lr-tb;fill:#000000;fill-opacity:1;fill-rule:nonzero;stroke:none"
                     transform="matrix(1,0,0,-1,24.33,96.228)"><tspan
                       id="tspan88"
                       y="0"
                       x="0 3.9715791 7.9431581 11.914738">1240</tspan></text>
<g
                     transform="translate(24.33,96.228)"
                     id="g92" /></g></g><g
                 transform="translate(19.405,-700.885)"
                 id="g94" /></g></g><g
             id="g96"><g
               transform="translate(-19.405,723.567)"
               id="g98"><g
                 id="g100"><g
                   transform="translate(-24.33,-118.91)"
                   id="g102"><text
                     id="text106"
                     style="font-variant:normal;font-weight:normal;font-size:6.97380018px;font-family:CMR7;-inkscape-font-specification:CMR7;writing-mode:lr-tb;fill:#000000;fill-opacity:1;fill-rule:nonzero;stroke:none"
                     transform="matrix(1,0,0,-1,24.33,118.91)"><tspan
                       id="tspan104"
                       y="0"
                       x="0 3.9715791 7.9431581 11.914738">1280</tspan></text>
<g
                     transform="translate(24.33,118.91)"
                     id="g108" /></g></g><g
                 transform="translate(19.405,-723.567)"
                 id="g110" /></g></g><g
             id="g112"><g
               transform="matrix(0.7071,-0.7071,0.7071,0.7071,-5.627,641.096)"
               id="g114"><g
                 id="g116"><g
                   transform="translate(-38.108,-36.439)"
                   id="g118"><text
                     id="text122"
                     style="font-variant:normal;font-weight:normal;font-size:6.97380018px;font-family:CMR7;-inkscape-font-specification:CMR7;writing-mode:lr-tb;fill:#000000;fill-opacity:1;fill-rule:nonzero;stroke:none"
                     transform="matrix(1,0,0,-1,38.108,36.439)"><tspan
                       id="tspan120"
                       y="0"
                       x="0 3.9715791 7.9431581 11.914738">100%</tspan></text>
<g
                     transform="translate(38.108,36.439)"
                     id="g124" /></g></g><g
                 transform="translate(5.627,-641.096)"
                 id="g126" /></g></g><g
             id="g128"><g
               transform="matrix(0.7071,-0.7071,0.7071,0.7071,24.124,639.692)"
               id="g130"><g
                 id="g132"><g
                   transform="translate(-67.859,-35.035)"
                   id="g134"><text
                     id="text138"
                     style="font-variant:normal;font-weight:normal;font-size:6.97380018px;font-family:CMR7;-inkscape-font-specification:CMR7;writing-mode:lr-tb;fill:#000000;fill-opacity:1;fill-rule:nonzero;stroke:none"
                     transform="matrix(1,0,0,-1,67.859,35.035)"><tspan
                       id="tspan136"
                       y="0"
                       x="0 3.9715791 7.9431581">90%</tspan></text>
<g
                     transform="translate(67.859,35.035)"
                     id="g140" /></g></g><g
                 transform="translate(-24.124,-639.692)"
                 id="g142" /></g></g><g
             id="g144"><g
               transform="matrix(0.7071,-0.7071,0.7071,0.7071,52.47,639.692)"
               id="g146"><g
                 id="g148"><g
                   transform="translate(-96.205,-35.035)"
                   id="g150"><text
                     id="text154"
                     style="font-variant:normal;font-weight:normal;font-size:6.97380018px;font-family:CMR7;-inkscape-font-specification:CMR7;writing-mode:lr-tb;fill:#000000;fill-opacity:1;fill-rule:nonzero;stroke:none"
                     transform="matrix(1,0,0,-1,96.205,35.035)"><tspan
                       id="tspan152"
                       y="0"
                       x="0 3.9715791 7.9431581">80%</tspan></text>
<g
                     transform="translate(96.205,35.035)"
                     id="g156" /></g></g><g
                 transform="translate(-52.47,-639.692)"
                 id="g158" /></g></g><g
             id="g160"><g
               transform="matrix(0.7071,-0.7071,0.7071,0.7071,80.816,639.692)"
               id="g162"><g
                 id="g164"><g
                   transform="translate(-124.551,-35.035)"
                   id="g166"><text
                     id="text170"
                     style="font-variant:normal;font-weight:normal;font-size:6.97380018px;font-family:CMR7;-inkscape-font-specification:CMR7;writing-mode:lr-tb;fill:#000000;fill-opacity:1;fill-rule:nonzero;stroke:none"
                     transform="matrix(1,0,0,-1,124.551,35.035)"><tspan
                       id="tspan168"
                       y="0"
                       x="0 3.9715791 7.9431581">70%</tspan></text>
<g
                     transform="translate(124.551,35.035)"
                     id="g172" /></g></g><g
                 transform="translate(-80.816,-639.692)"
                 id="g174" /></g></g><g
             id="g176"><g
               transform="matrix(0.7071,-0.7071,0.7071,0.7071,109.163,639.692)"
               id="g178"><g
                 id="g180"><g
                   transform="translate(-152.898,-35.035)"
                   id="g182"><text
                     id="text186"
                     style="font-variant:normal;font-weight:normal;font-size:6.97380018px;font-family:CMR7;-inkscape-font-specification:CMR7;writing-mode:lr-tb;fill:#000000;fill-opacity:1;fill-rule:nonzero;stroke:none"
                     transform="matrix(1,0,0,-1,152.898,35.035)"><tspan
                       id="tspan184"
                       y="0"
                       x="0 3.9715791 7.9431581">60%</tspan></text>
<g
                     transform="translate(152.898,35.035)"
                     id="g188" /></g></g><g
                 transform="translate(-109.163,-639.692)"
                 id="g190" /></g></g><g
             id="g192"><g
               transform="matrix(0.7071,-0.7071,0.7071,0.7071,137.509,639.692)"
               id="g194"><g
                 id="g196"><g
                   transform="translate(-181.244,-35.035)"
                   id="g198"><text
                     id="text202"
                     style="font-variant:normal;font-weight:normal;font-size:6.97380018px;font-family:CMR7;-inkscape-font-specification:CMR7;writing-mode:lr-tb;fill:#000000;fill-opacity:1;fill-rule:nonzero;stroke:none"
                     transform="matrix(1,0,0,-1,181.244,35.035)"><tspan
                       id="tspan200"
                       y="0"
                       x="0 3.9715791 7.9431581">50%</tspan></text>
<g
                     transform="translate(181.244,35.035)"
                     id="g204" /></g></g><g
                 transform="translate(-137.509,-639.692)"
                 id="g206" /></g></g><g
             id="g208"><g
               transform="matrix(0.7071,-0.7071,0.7071,0.7071,165.856,639.692)"
               id="g210"><g
                 id="g212"><g
                   transform="translate(-209.591,-35.035)"
                   id="g214"><text
                     id="text218"
                     style="font-variant:normal;font-weight:normal;font-size:6.97380018px;font-family:CMR7;-inkscape-font-specification:CMR7;writing-mode:lr-tb;fill:#000000;fill-opacity:1;fill-rule:nonzero;stroke:none"
                     transform="matrix(1,0,0,-1,209.591,35.035)"><tspan
                       id="tspan216"
                       y="0"
                       x="0 3.9715791 7.9431581">40%</tspan></text>
<g
                     transform="translate(209.591,35.035)"
                     id="g220" /></g></g><g
                 transform="translate(-165.856,-639.692)"
                 id="g222" /></g></g><g
             id="g224"><g
               transform="matrix(0.7071,-0.7071,0.7071,0.7071,194.202,639.692)"
               id="g226"><g
                 id="g228"><g
                   transform="translate(-237.937,-35.035)"
                   id="g230"><text
                     id="text234"
                     style="font-variant:normal;font-weight:normal;font-size:6.97380018px;font-family:CMR7;-inkscape-font-specification:CMR7;writing-mode:lr-tb;fill:#000000;fill-opacity:1;fill-rule:nonzero;stroke:none"
                     transform="matrix(1,0,0,-1,237.937,35.035)"><tspan
                       id="tspan232"
                       y="0"
                       x="0 3.9715791 7.9431581">30%</tspan></text>
<g
                     transform="translate(237.937,35.035)"
                     id="g236" /></g></g><g
                 transform="translate(-194.202,-639.692)"
                 id="g238" /></g></g><g
             id="g240"><g
               transform="matrix(0.7071,-0.7071,0.7071,0.7071,222.549,639.692)"
               id="g242"><g
                 id="g244"><g
                   transform="translate(-266.284,-35.035)"
                   id="g246"><text
                     id="text250"
                     style="font-variant:normal;font-weight:normal;font-size:6.97380018px;font-family:CMR7;-inkscape-font-specification:CMR7;writing-mode:lr-tb;fill:#000000;fill-opacity:1;fill-rule:nonzero;stroke:none"
                     transform="matrix(1,0,0,-1,266.284,35.035)"><tspan
                       id="tspan248"
                       y="0"
                       x="0 3.9715791 7.9431581">20%</tspan></text>
<g
                     transform="translate(266.284,35.035)"
                     id="g252" /></g></g><g
                 transform="translate(-222.549,-639.692)"
                 id="g254" /></g></g><g
             id="g256"><g
               transform="matrix(0.7071,-0.7071,0.7071,0.7071,250.895,639.692)"
               id="g258"><g
                 id="g260"><g
                   transform="translate(-294.63,-35.035)"
                   id="g262"><text
                     id="text266"
                     style="font-variant:normal;font-weight:normal;font-size:6.97380018px;font-family:CMR7;-inkscape-font-specification:CMR7;writing-mode:lr-tb;fill:#000000;fill-opacity:1;fill-rule:nonzero;stroke:none"
                     transform="matrix(1,0,0,-1,294.63,35.035)"><tspan
                       id="tspan264"
                       y="0"
                       x="0 3.9715791 7.9431581">10%</tspan></text>
<g
                     transform="translate(294.63,35.035)"
                     id="g268" /></g></g><g
                 transform="translate(-250.895,-639.692)"
                 id="g270" /></g></g><g
             id="g272"><g
               transform="translate(93.368,609.915)"
               id="g274"><g
                 id="g276"><g
                   transform="translate(-137.103,-5.258)"
                   id="g278"><text
                     id="text282"
                     style="font-variant:normal;font-weight:normal;font-size:9.96259975px;font-family:CMR10;-inkscape-font-specification:CMR10;writing-mode:lr-tb;fill:#000000;fill-opacity:1;fill-rule:nonzero;stroke:none"
                     transform="matrix(1,0,0,-1,137.103,5.258)"><tspan
                       id="tspan280"
                       y="0"
                       x="0 5.5352206 9.4096756 14.390976 18.26543 26.010357 30.991655 37.363735 44.558723 50.093945 55.075245 58.977596 63.958897">StateofCharge</tspan></text>
<g
                     transform="translate(137.103,5.258)"
                     id="g284" /></g></g><g
                 transform="translate(-93.368,-609.915)"
                 id="g286" /></g></g><g
             id="g288"><g
               transform="rotate(90,-345.5545,312.6125)"
               id="g290"><g
                 id="g292"><g
                   transform="translate(-10.793,-53.51)"
                   id="g294"><text
                     id="text298"
                     style="font-variant:normal;font-weight:normal;font-size:9.96259975px;font-family:CMR10;-inkscape-font-specification:CMR10;writing-mode:lr-tb;fill:#000000;fill-opacity:1;fill-rule:nonzero;stroke:none"
                     transform="matrix(1,0,0,-1,10.793,53.51)"><tspan
                       id="tspan296"
                       y="0"
                       x="0 6.6450543 11.626354 14.393965 18.268419 23.24972 28.23102 35.975945 39.850399 42.618011 51.470776 55.898155 63.370106">Voltage(incV)</tspan></text>
<g
                     transform="translate(10.793,53.51)"
                     id="g300" /></g></g><g
                 transform="translate(32.942,-658.167)"
                 id="g302" /></g></g></g></g></g></g></svg>