<?xml version="1.0" encoding="UTF-8" standalone="no"?>
<svg
   xmlns:dc="http://purl.org/dc/elements/1.1/"
   xmlns:cc="http://creativecommons.org/ns#"
   xmlns:rdf="http://www.w3.org/1999/02/22-rdf-syntax-ns#"
   xmlns:svg="http://www.w3.org/2000/svg"
   xmlns="http://www.w3.org/2000/svg"
   viewBox="0 0 76.652 125.53333"
   height="125.53333"
   width="76.652"
   xml:space="preserve"
   id="svg2"
   version="1.1"><metadata
     id="metadata8"><rdf:RDF><cc:Work
         rdf:about=""><dc:format>image/svg+xml</dc:format><dc:type
           rdf:resource="http://purl.org/dc/dcmitype/StillImage" /></cc:Work></rdf:RDF></metadata><defs
     id="defs6" /><g
     transform="matrix(1.3333333,0,0,-1.3333333,0,125.53333)"
     id="g10"><g
       transform="translate(0.398,25.721)"
       id="g12"><g
         id="g14"><g
           id="g16"><g
             id="g18" /><g
             id="g20"><path
               id="path22"
               style="fill:none;stroke:#808080;stroke-width:0.3985;stroke-linecap:butt;stroke-linejoin:miter;stroke-miterlimit:10;stroke-dasharray:none;stroke-opacity:1"
               d="M 0,0 H 11.33855 M 0,11.33855 H 11.33855 M 0,22.6771 H 11.33855 M 0,34.01564 H 11.33855 M 0,45.35419 H 11.33855 M 0,56.69275 H 11.33855 M 0,68.02731 H 11.33855 M 0,0 V 68.0313 M 11.33456,0 v 68.0313" /></g><g
             id="g24"><path
               id="path26"
               style="fill:none;stroke:#808080;stroke-width:0.3985;stroke-linecap:butt;stroke-linejoin:miter;stroke-miterlimit:10;stroke-dasharray:none;stroke-opacity:1"
               d="M 22.6771,0 H 34.01564 M 22.6771,11.33855 H 34.01564 M 22.6771,22.6771 H 34.01564 M 22.6771,34.01564 H 34.01564 M 22.6771,45.35419 H 34.01564 M 22.6771,56.69275 H 34.01564 M 22.6771,68.02731 H 34.01564 M 22.6771,0 V 68.0313 M 34.01166,0 v 68.0313" /></g><g
             id="g28"><path
               id="path30"
               style="fill:none;stroke:#808080;stroke-width:0.3985;stroke-linecap:butt;stroke-linejoin:miter;stroke-miterlimit:10;stroke-dasharray:none;stroke-opacity:1"
               d="M 45.35419,0 H 56.69275 M 45.35419,11.33855 H 56.69275 M 45.35419,22.6771 H 56.69275 M 45.35419,34.01564 H 56.69275 M 45.35419,45.35419 H 56.69275 M 45.35419,56.69275 H 56.69275 M 45.35419,68.02731 H 56.69275 M 45.35419,0 V 68.0313 M 56.68877,0 v 68.0313" /></g><g
             id="g32"><path
               id="path34"
               style="fill:#ffcc99;fill-opacity:1;fill-rule:nonzero;stroke:#000000;stroke-width:0.3985;stroke-linecap:butt;stroke-linejoin:miter;stroke-miterlimit:10;stroke-dasharray:none;stroke-opacity:1"
               d="M 0,0 V 45.35419 H 11.33855 V 0 Z" /></g><g
             id="g36"><path
               id="path38"
               style="fill:#9999ff;fill-opacity:1;fill-rule:nonzero;stroke:#000000;stroke-width:0.3985;stroke-linecap:butt;stroke-linejoin:miter;stroke-miterlimit:10;stroke-dasharray:none;stroke-opacity:1"
               d="M 22.6771,0 V 22.6771 H 34.01564 V 0 Z" /></g><g
             id="g40"><path
               id="path42"
               style="fill:#99ff99;fill-opacity:1;fill-rule:nonzero;stroke:#000000;stroke-width:0.3985;stroke-linecap:butt;stroke-linejoin:miter;stroke-miterlimit:10;stroke-dasharray:none;stroke-opacity:1"
               d="M 22.6771,22.6771 V 56.69275 H 34.01564 V 22.6771 Z" /></g><g
             id="g44"><g
               transform="rotate(90,15.226,-7.174)"
               id="g46"><g
                 id="g48"><g
                   transform="translate(-8.45,-3.321)"
                   id="g50"><text
                     id="text54"
                     style="font-variant:normal;font-weight:normal;font-size:6.97380018px;font-family:CMR7;-inkscape-font-specification:CMR7;writing-mode:lr-tb;fill:#000000;fill-opacity:1;fill-rule:nonzero;stroke:none"
                     transform="matrix(1,0,0,-1,8.45,3.321)"><tspan
                       id="tspan52"
                       y="0"
                       x="0 5.5692768 7.8246036 14.909985">Bin1</tspan></text>
<g
                     transform="translate(8.45,3.321)"
                     id="g56" /></g></g><g
                 transform="translate(-8.052,22.4)"
                 id="g58" /></g></g><g
             id="g60"><path
               id="path62"
               style="fill:none;stroke:#ff0000;stroke-width:0.79701;stroke-linecap:butt;stroke-linejoin:miter;stroke-miterlimit:10;stroke-dasharray:none;stroke-opacity:1"
               d="M 0,68.0313 H 11.33855" /></g><g
             id="g64"><g
               transform="rotate(90,26.5645,4.1645)"
               id="g66"><g
                 id="g68"><g
                   transform="translate(-31.127,-3.321)"
                   id="g70"><text
                     id="text74"
                     style="font-variant:normal;font-weight:normal;font-size:6.97380018px;font-family:CMR7;-inkscape-font-specification:CMR7;writing-mode:lr-tb;fill:#000000;fill-opacity:1;fill-rule:nonzero;stroke:none"
                     transform="matrix(1,0,0,-1,31.127,3.321)"><tspan
                       id="tspan72"
                       y="0"
                       x="0 5.5692768 7.8246036 14.909985">Bin2</tspan></text>
<g
                     transform="translate(31.127,3.321)"
                     id="g76" /></g></g><g
                 transform="translate(-30.729,22.4)"
                 id="g78" /></g></g><g
             id="g80"><path
               id="path82"
               style="fill:none;stroke:#ff0000;stroke-width:0.79701;stroke-linecap:butt;stroke-linejoin:miter;stroke-miterlimit:10;stroke-dasharray:none;stroke-opacity:1"
               d="M 22.6771,68.0313 H 34.01564" /></g><g
             id="g84"><g
               transform="rotate(90,37.903,15.503)"
               id="g86"><g
                 id="g88"><g
                   transform="translate(-53.804,-3.321)"
                   id="g90"><text
                     id="text94"
                     style="font-variant:normal;font-weight:normal;font-size:6.97380018px;font-family:CMR7;-inkscape-font-specification:CMR7;writing-mode:lr-tb;fill:#000000;fill-opacity:1;fill-rule:nonzero;stroke:none"
                     transform="matrix(1,0,0,-1,53.804,3.321)"><tspan
                       id="tspan92"
                       y="0"
                       x="0 5.5692768 7.8246036 14.909985">Bin3</tspan></text>
<g
                     transform="translate(53.804,3.321)"
                     id="g96" /></g></g><g
                 transform="translate(-53.406,22.4)"
                 id="g98" /></g></g><g
             id="g100"><path
               id="path102"
               style="fill:none;stroke:#ff0000;stroke-width:0.79701;stroke-linecap:butt;stroke-linejoin:miter;stroke-miterlimit:10;stroke-dasharray:none;stroke-opacity:1"
               d="M 45.35419,68.0313 H 56.69275" /></g></g></g></g></g></svg>