<?xml version="1.0" encoding="UTF-8" standalone="no"?>
<!-- Generator: Adobe Illustrator 23.0.3, SVG Export Plug-In . SVG Version: 6.00 Build 0)  -->

<svg
   xmlns:dc="http://purl.org/dc/elements/1.1/"
   xmlns:cc="http://creativecommons.org/ns#"
   xmlns:rdf="http://www.w3.org/1999/02/22-rdf-syntax-ns#"
   xmlns:svg="http://www.w3.org/2000/svg"
   xmlns="http://www.w3.org/2000/svg"
   xmlns:sodipodi="http://sodipodi.sourceforge.net/DTD/sodipodi-0.dtd"
   xmlns:inkscape="http://www.inkscape.org/namespaces/inkscape"
   version="1.1"
   id="Layer_1"
   x="0px"
   y="0px"
   viewBox="0 0 500 500"
   style="enable-background:new 0 0 500 500;"
   xml:space="preserve"
   sodipodi:docname="logo.svg"
   inkscape:version="0.92.2 5c3e80d, 2017-08-06"><metadata
     id="metadata955"><rdf:RDF><cc:Work
         rdf:about=""><dc:format>image/svg+xml</dc:format><dc:type
           rdf:resource="http://purl.org/dc/dcmitype/StillImage" /></cc:Work></rdf:RDF></metadata><defs
     id="defs953" /><sodipodi:namedview
     pagecolor="#ffffff"
     bordercolor="#666666"
     borderopacity="1"
     objecttolerance="10"
     gridtolerance="10"
     guidetolerance="10"
     inkscape:pageopacity="0"
     inkscape:pageshadow="2"
     inkscape:window-width="1432"
     inkscape:window-height="773"
     id="namedview951"
     showgrid="false"
     inkscape:zoom="0.472"
     inkscape:cx="365.4661"
     inkscape:cy="250"
     inkscape:window-x="10"
     inkscape:window-y="0"
     inkscape:window-maximized="0"
     inkscape:current-layer="Layer_1" /><path
     inkscape:export-ydpi="300"
     inkscape:export-xdpi="300"
     style="fill:#005c94;stroke:none;stroke-width:4.78758144"
     inkscape:connector-curvature="0"
     id="path2"
     d="m 279.38249,191.64706 c -5.13397,-7.99619 -0.49997,-20.9386 10.34205,-28.91 10.85587,-7.96647 23.80888,-7.93677 28.9475,0.0694 5.13861,8.00113 0.51387,20.94354 -10.34204,28.91 -10.84664,7.96153 -23.80888,7.93677 -28.94751,-0.0693 m 60.91337,161.55234 c 0,-12.74437 -9.30965,-14.87832 -14.2955,-14.87832 -12.6984,0 -13.55482,16.74491 -4.60161,16.74491 6.23113,0 10.59666,-3.74803 8.49491,-9.47655 5.29602,4.64917 4.26828,16.56173 -9.97633,15.97253 -16.36486,-0.6585 -15.48525,-28.22675 4.79606,-28.90507 13.81869,-0.46043 25.04031,7.15946 25.04031,20.55241 0,21.71095 -28.71142,34.40086 -53.97393,20.54744 18.13327,8.31306 44.51609,-1.69825 44.51609,-20.55735 M 221.0801,379.08926 c 0,13.5712 -10.11059,21.01777 -22.41548,21.01777 -12.30951,0 -25.76712,-10.28855 -19.61467,-28.38517 -3.67111,16.48252 10.13369,21.66147 17.82773,21.66147 9.97168,0 16.01302,-7.26339 16.01302,-15.08134 0,-7.81298 -4.00905,-10.17964 -8.36528,-10.17964 -6.38856,0 -10.65222,7.03565 -6.62927,9.76869 -7.69403,0 -3.42575,-13.84351 6.92091,-14.80406 8.84674,-0.82683 16.26304,4.89673 16.26304,16.00228 m 85.79166,-143.69352 c 18.4851,-7.50106 32.30379,0.3763 84.74543,-17.03706 47.49743,-15.77447 108.81357,-81.14008 61.79759,-126.750421 -38.48404,-37.341884 -116.35484,-26.632444 -159.8988,4.34219 -16.02692,11.392671 -27.95683,26.478951 -37.63685,41.466211 2.65265,0.47035 4.99511,1.63883 6.66632,3.70349 5.09693,6.29791 2.29616,17.81931 -6.24504,25.71648 -6.91631,6.39694 -15.43437,8.37741 -21.15164,5.58988 -16.39264,25.10252 -37.26652,35.67333 -52.68697,39.45108 14.79549,-6.71383 31.7066,-22.71109 38.97473,-38.2628 -41.96531,16.29436 -55.72848,-24.45391 -24.70238,-30.65281 -14.95288,4.21841 -14.03163,25.01342 5.66637,25.01342 22.63767,0 27.83648,-41.25333 -5.66637,-41.25333 -19.37394,0 -31.15569,10.08064 -39.2664,22.95868 36.78045,25.52832 18.36478,60.33025 -6.76814,60.33025 -45.02073,0 -20.5915,-56.74064 0.69903,-35.08909 -17.79534,-11.94723 -28.96602,24.63712 -0.3472,24.63712 22.68396,0 24.4524,-31.08852 1.56937,-41.81278 -18.32309,-8.58043 -42.75233,-6.71383 -57.066373,11.94719 -13.47148,17.57673 -10.85126,38.37173 7.226453,51.02203 22.10531,15.46752 11.76791,39.6838 -0.18056,47.45716 -13.735373,8.93195 -31.164973,4.31744 -31.164973,-7.43669 0,-4.10949 2.7915,-10.8233 8.02272,-10.8233 -5.75896,1.48535 -6.61077,14.13565 5.86078,14.13565 8.19865,0 18.249033,-4.26794 18.249033,-16.67562 0,-8.22886 -4.370153,-20.94849 -27.378163,-20.94849 -22.60064,0 -46.46509,19.75526 -46.46509,49.79908 0,30.04875 26.86892,41.89696 58.63572,38.35686 25.128263,-2.79742 36.090663,-21.45845 59.681963,-7.83773 26.17915,15.12093 21.0498,49.4277 12.82803,67.46984 -10.2078,22.39423 -5.61081,61.50368 36.91004,57.67145 34.71572,-3.11926 41.79867,-28.79612 40.83113,-45.63016 -1.05088,-18.47784 -10.81887,-27.34543 -22.68396,-31.44995 17.45274,-5.22846 38.18313,3.75795 47.81684,27.62268 6.63393,16.42806 22.33677,29.86063 47.46969,29.86063 38.39143,0 58.55704,-24.81536 55.83957,-55.24537 -1.05086,-11.75908 -8.0227,-29.11795 -24.4246,-31.72722 9.07359,-12.31853 23.38301,-17.17565 53.04807,-10.45195 25.79027,5.83744 48.16868,-15.30413 48.16868,-35.46537 0,-33.96516 -28.97066,-40.31753 -41.53015,-40.31753 -14.66588,0 -28.42903,8.19916 -28.42903,23.1369 0,12.68991 9.39302,17.93322 20.04521,17.93322 12.22158,0 19.80451,-4.87693 19.80451,-12.90777 0,-13.06618 -17.71201,-15.49723 -24.01262,-7.03562 5.90711,-13.77421 30.73446,-9.61523 30.73446,8.74873 0,10.05093 -6.99036,19.40371 -27.57259,19.40371 -24.5033,0 -36.6508,-23.51815 -28.62808,-41.06514 -6.97186,1.86658 -13.95296,7.47132 -21.05905,10.58564 -40.8589,17.9035 -51.60833,-16.28942 -36.32674,-22.48337" /></svg>